<svg xmlns="http://www.w3.org/2000/svg" xml:space="preserve" width="2.7092mm" height="2.7092mm" version="1.1" style="shape-rendering:geometricPrecision; text-rendering:geometricPrecision; image-rendering:optimizeQuality; fill-rule:evenodd; clip-rule:evenodd"
viewBox="0 0 270.92 270.92"
 xmlns:xlink="http://www.w3.org/1999/xlink"
 xmlns:xodm="http://www.corel.com/coreldraw/odm/2003">
 <defs>
  <style type="text/css">
   <![CDATA[
    .fil0 {fill:none}
    .fil1 {fill:#323234}
   ]]>
  </style>
 </defs>
 <g id="Слой_x0020_1">
  <metadata id="CorelCorpID_0Corel-Layer"/>
  <rect class="fil0" x="-0" y="-0.01" width="270.93" height="270.93"/>
  <path class="fil1" d="M250.61 27.34l-7.03 14.06 -42.57 0 0 202.18c-5.3,0 -9.57,0 -14.87,0l0 -187.16c2.51,-5.01 5.01,-10.01 7.52,-15.02 -17.44,0 -32.82,0 -50.25,0l0 202.18c-5.3,0 -9.57,0 -14.87,0l0 -187.16 7.51 -15.02c-16.4,0 -33.84,0 -50.25,0l0 202.18c-5.3,0 -9.56,0 -14.86,0l0 -187.16c2.5,-5.01 5.01,-10.01 7.51,-15.02l-51.12 0 -7.02 -14.06 230.3 0z"/>
 </g>
</svg>
